<svg height="512" viewBox="0 0 32 32" width="512" xmlns="http://www.w3.org/2000/svg"><path d="M26 32H6a6 6 0 01-6-6V6a6 6 0 016-6h20a6 6 0 016 6v20a6 6 0 01-6 6z" fill="#e3f8fa"/><g fill="#8ce1eb"><path d="M12.833 16h-1.667a.5.5 0 01-.5-.5v-1.667a.5.5 0 01.5-.5h1.667a.5.5 0 01.5.5V15.5a.5.5 0 01-.5.5zM16.833 16h-1.667a.5.5 0 01-.5-.5v-1.667a.5.5 0 01.5-.5h1.667a.5.5 0 01.5.5V15.5a.5.5 0 01-.5.5zM20.834 16h-1.667a.5.5 0 01-.5-.5v-1.667a.5.5 0 01.5-.5h1.667a.5.5 0 01.5.5V15.5a.5.5 0 01-.5.5zM12.833 20.667h-1.667a.5.5 0 01-.5-.5V18.5a.5.5 0 01.5-.5h1.667a.5.5 0 01.5.5v1.667a.5.5 0 01-.5.5zM16.833 20.667h-1.667a.5.5 0 01-.5-.5V18.5a.5.5 0 01.5-.5h1.667a.5.5 0 01.5.5v1.667a.5.5 0 01-.5.5zM20.834 20.667h-1.667a.5.5 0 01-.5-.5V18.5a.5.5 0 01.5-.5h1.667a.5.5 0 01.5.5v1.667a.5.5 0 01-.5.5z"/></g><path d="M22 8.667H10c-1.103 0-2 .897-2 2v10.667c0 1.103.897 2 2 2h12c1.103 0 2-.897 2-2V10.667c0-1.103-.897-2-2-2zM22 22H10a.667.667 0 01-.667-.667V12h13.334v9.333A.667.667 0 0122 22z" fill="#26c6da"/></svg>