<svg height="512" viewBox="0 0 32 32" width="512" xmlns="http://www.w3.org/2000/svg"><path d="M26 32H6a6 6 0 01-6-6V6a6 6 0 016-6h20a6 6 0 016 6v20a6 6 0 01-6 6z" fill="#f5e6fe"/><path d="M22 24H10c-1.103 0-2-.897-2-2V10c0-1.103.897-2 2-2h12c1.103 0 2 .897 2 2v12c0 1.103-.897 2-2 2zM10 9.333a.667.667 0 00-.667.667v12c0 .368.299.667.667.667h12a.667.667 0 00.667-.667V10A.667.667 0 0022 9.333z" fill="#be63f9"/><g fill="#d9a4fc"><path d="M13.833 14.833h-1a1 1 0 01-1-1v-1a1 1 0 011-1h1a1 1 0 011 1v1a1 1 0 01-1 1zM19.167 14.833h-1a1 1 0 01-1-1v-1a1 1 0 011-1h1a1 1 0 011 1v1a1 1 0 01-1 1zM13.833 20.167h-1a1 1 0 01-1-1v-1a1 1 0 011-1h1a1 1 0 011 1v1a1 1 0 01-1 1zM19.167 20.167h-1a1 1 0 01-1-1v-1a1 1 0 011-1h1a1 1 0 011 1v1a1 1 0 01-1 1z"/></g></svg>